<svg width="21" height="21" viewBox="0 0 21 21" fill="none" xmlns="http://www.w3.org/2000/svg">
<rect width="21" height="21" fill="#C08267"/>
<path d="M13.9609 21H10.6504V9.57422C10.6504 8.75391 10.8164 8.0638 11.1484 7.50391C11.4805 6.94401 11.9492 6.52083 12.5547 6.23438C13.1602 5.94141 13.8763 5.79492 14.7031 5.79492C14.9896 5.79492 15.2598 5.81445 15.5137 5.85352C15.7676 5.89258 16.015 5.94141 16.2559 6L16.2656 8.42188C16.1484 8.38932 16.028 8.36654 15.9043 8.35352C15.7806 8.34049 15.6276 8.33398 15.4453 8.33398C15.1263 8.33398 14.8561 8.38281 14.6348 8.48047C14.4134 8.57161 14.2441 8.71159 14.127 8.90039C14.0163 9.08268 13.9609 9.30729 13.9609 9.57422V21ZM16.0117 10.4336V12.7188H9.12695V10.4336H16.0117Z" fill="#F8F5F4"/>
</svg>
